{
  "asset": {
    "generator": "Khronos glTF Blender I/O v1.6.16",
    "version": "2.0"
  },
  "extensionsUsed": [
    "KHR_texture_transform"
  ],
  "extensionsRequired": [
    "KHR_texture_transform"
  ],
  "scene": 0,
  "scenes": [
    {
      "name": "Scene",
      "nodes": [
        0
      ]
    }
  ],
  "nodes": [
    {
      "mesh": 0,
      "name": "sphere_gltf"
    }
  ],
  "materials": [
    {
      "doubleSided": true,
      "name": "large_sandstone_blocks",
      "normalTexture": {
        "extensions": {
          "KHR_texture_transform": {
            "offset": [
              0,
              -0.5
            ]
          }
        },
        "index": 0
      },
      "pbrMetallicRoughness": {
        "baseColorTexture": {
          "extensions": {
            "KHR_texture_transform": {
              "offset": [
                0,
                -0.5
              ]
            }
          },
          "index": 1
        },
        "metallicFactor": 0,
        "metallicRoughnessTexture": {
          "extensions": {
            "KHR_texture_transform": {
              "offset": [
                0,
                -0.5
              ]
            }
          },
          "index": 2
        }
      }
    }
  ],
  "meshes": [
    {
      "name": "Sphere.001",
      "primitives": [
        {
          "attributes": {
            "POSITION": 0,
            "NORMAL": 1,
            "TEXCOORD_0": 2
          },
          "indices": 3,
          "material": 0
        }
      ]
    }
  ],
  "textures": [
    {
      "sampler": 0,
      "source": 0
    },
    {
      "sampler": 0,
      "source": 1
    },
    {
      "sampler": 0,
      "source": 2
    }
  ],
  "images": [
    {
      "mimeType": "image/jpeg",
      "name": "large_sandstone_blocks_nor_gl_8k",
      "uri": "textures/large_sandstone_blocks_nor_gl_4k.jpg"
    },
    {
      "mimeType": "image/jpeg",
      "name": "large_sandstone_blocks_diff_8k",
      "uri": "textures/large_sandstone_blocks_diff_4k.jpg"
    },
    {
      "mimeType": "image/jpeg",
      "name": "large_sandstone_blocks_arm_8k",
      "uri": "textures/large_sandstone_blocks_arm_4k.jpg"
    }
  ],
  "accessors": [
    {
      "bufferView": 0,
      "componentType": 5126,
      "count": 53898,
      "max": [
        1.4577027559280396,
        1.5219664573669434,
        1.457957148551941
      ],
      "min": [
        -1.4576951265335083,
        -1.5238676071166992,
        -1.457932710647583
      ],
      "type": "VEC3"
    },
    {
      "bufferView": 1,
      "componentType": 5126,
      "count": 53898,
      "type": "VEC3"
    },
    {
      "bufferView": 2,
      "componentType": 5126,
      "count": 53898,
      "type": "VEC2"
    },
    {
      "bufferView": 3,
      "componentType": 5123,
      "count": 322170,
      "type": "SCALAR"
    }
  ],
  "bufferViews": [
    {
      "buffer": 0,
      "byteLength": 646776,
      "byteOffset": 0
    },
    {
      "buffer": 0,
      "byteLength": 646776,
      "byteOffset": 646776
    },
    {
      "buffer": 0,
      "byteLength": 431184,
      "byteOffset": 1293552
    },
    {
      "buffer": 0,
      "byteLength": 644340,
      "byteOffset": 1724736
    }
  ],
  "samplers": [
    {
      "magFilter": 9729,
      "minFilter": 9987
    }
  ],
  "buffers": [
    {
      "byteLength": 2369076,
      "uri": "large_sandstone_blocks.bin"
    }
  ]
}